<svg width="28" height="28" viewBox="0 0 28 28" fill="none" xmlns="http://www.w3.org/2000/svg">
<g id="Account circle" clip-path="url(#clip0_58_1120)">
<path id="Vector" d="M14 2.33334C7.55998 2.33334 2.33331 7.56001 2.33331 14C2.33331 20.44 7.55998 25.6667 14 25.6667C20.44 25.6667 25.6666 20.44 25.6666 14C25.6666 7.56001 20.44 2.33334 14 2.33334ZM8.24831 21.3267C8.74998 20.2767 11.8066 19.25 14 19.25C16.1933 19.25 19.2616 20.2767 19.7516 21.3267C18.165 22.5867 16.17 23.3333 14 23.3333C11.83 23.3333 9.83498 22.5867 8.24831 21.3267ZM21.42 19.635C19.7516 17.605 15.7033 16.9167 14 16.9167C12.2966 16.9167 8.24831 17.605 6.57998 19.635C5.38998 18.0717 4.66665 16.1233 4.66665 14C4.66665 8.85501 8.85498 4.66668 14 4.66668C19.145 4.66668 23.3333 8.85501 23.3333 14C23.3333 16.1233 22.61 18.0717 21.42 19.635ZM14 7.00001C11.7366 7.00001 9.91665 8.82001 9.91665 11.0833C9.91665 13.3467 11.7366 15.1667 14 15.1667C16.2633 15.1667 18.0833 13.3467 18.0833 11.0833C18.0833 8.82001 16.2633 7.00001 14 7.00001ZM14 12.8333C13.0316 12.8333 12.25 12.0517 12.25 11.0833C12.25 10.115 13.0316 9.33334 14 9.33334C14.9683 9.33334 15.75 10.115 15.75 11.0833C15.75 12.0517 14.9683 12.8333 14 12.8333Z" fill="#545F71"/>
</g>
<defs>
<clipPath id="clip0_58_1120">
<rect width="28" height="28" fill="white"/>
</clipPath>
</defs>
</svg>
