<svg width="260" height="49" viewBox="0 0 260 49" fill="none" xmlns="http://www.w3.org/2000/svg">
<path id="Vector 5" d="M2.50491 32.5L7.24795 36.7049C7.43088 36.8671 7.66687 36.9566 7.91133 36.9566H32.6203C32.9324 36.9566 33.2266 36.811 33.4157 36.5628L42.7398 24.3279C42.8044 24.2431 42.8822 24.1692 42.9701 24.109L66.994 7.65424C67.4834 7.31902 68.1554 7.4811 68.4382 8.00256L80.8888 30.962C81.0843 31.3226 81.4804 31.5272 81.8877 31.478L106.96 28.45C107.322 28.4063 107.679 28.563 107.892 28.859L120.092 45.8258C120.546 46.457 121.515 46.3516 121.822 45.6376L140.159 3.06845C140.382 2.54998 140.99 2.31903 141.501 2.55844L162.462 12.3745C162.533 12.4077 162.6 12.449 162.661 12.4976L186.412 31.396C186.547 31.5032 186.707 31.5738 186.877 31.601L220.239 36.9329C220.338 36.9486 220.438 36.9495 220.537 36.9356L257.027 31.783" stroke="#545F71" stroke-width="4" stroke-linecap="round"/>
</svg>
