<svg width="32" height="36" viewBox="0 0 32 36" fill="none" xmlns="http://www.w3.org/2000/svg">
<g id="Notifications active" clip-path="url(#clip0_58_491)">
<path id="Vector" d="M10.341 5.69462L8.37395 3.93462C5.07262 6.18692 2.89924 9.65769 2.70667 13.5962H5.45778C5.66411 10.3346 7.53486 7.47923 10.341 5.69462ZM27.3841 13.5962H30.1352C29.9289 9.65769 27.7555 6.18692 24.468 3.93462L22.5147 5.69462C25.2933 7.47923 27.1778 10.3346 27.3841 13.5962ZM24.6743 14.2115C24.6743 10.4331 22.4184 7.27 18.4843 6.43308V5.59615C18.4843 4.57462 17.5627 3.75 16.421 3.75C15.2792 3.75 14.3576 4.57462 14.3576 5.59615V6.43308C10.4098 7.27 8.16762 10.4208 8.16762 14.2115V20.3654L5.41651 22.8269V24.0577H27.4254V22.8269L24.6743 20.3654V14.2115ZM16.421 27.75C16.6135 27.75 16.7924 27.7377 16.9712 27.7008C17.8653 27.5285 18.5943 26.9869 18.952 26.2485C19.0895 25.9531 19.1583 25.6331 19.1583 25.2885H13.6561C13.6698 26.6423 14.8941 27.75 16.421 27.75Z" fill="#545F71"/>
</g>
<defs>
<clipPath id="clip0_58_491">
<rect width="32" height="36" fill="white"/>
</clipPath>
</defs>
</svg>
